<mxfile host="app.diagrams.net" modified="2024-01-10T20:04:50.444Z" agent="Mozilla/5.0 (Windows NT 10.0; Win64; x64) AppleWebKit/537.36 (KHTML, like Gecko) Chrome/120.0.0.0 Safari/537.36" etag="kQ846Rw96xi02HYg0s8B" version="22.1.17" type="github">
  <diagram name="Page-1" id="B3mlhVvV09Qu5MrSqNEG">
    <mxGraphModel dx="1687" dy="918" grid="1" gridSize="10" guides="1" tooltips="1" connect="1" arrows="1" fold="1" page="1" pageScale="1" pageWidth="850" pageHeight="1100" math="0" shadow="0">
      <root>
        <mxCell id="0" />
        <mxCell id="1" parent="0" />
        <mxCell id="V8RE8BcvdDwi5T4sLW9s-6" value="" style="edgeStyle=orthogonalEdgeStyle;rounded=0;orthogonalLoop=1;jettySize=auto;html=1;" parent="1" source="V8RE8BcvdDwi5T4sLW9s-1" target="V8RE8BcvdDwi5T4sLW9s-5" edge="1">
          <mxGeometry relative="1" as="geometry" />
        </mxCell>
        <mxCell id="V8RE8BcvdDwi5T4sLW9s-1" value="Receive Data&lt;br&gt;MFT / ACMF Email" style="rounded=1;whiteSpace=wrap;html=1;" parent="1" vertex="1">
          <mxGeometry x="30" y="350" width="110" height="60" as="geometry" />
        </mxCell>
        <mxCell id="V8RE8BcvdDwi5T4sLW9s-8" style="edgeStyle=orthogonalEdgeStyle;rounded=0;orthogonalLoop=1;jettySize=auto;html=1;exitX=0.5;exitY=0;exitDx=0;exitDy=0;entryX=0;entryY=0.5;entryDx=0;entryDy=0;entryPerimeter=0;" parent="1" source="V8RE8BcvdDwi5T4sLW9s-5" target="V8RE8BcvdDwi5T4sLW9s-7" edge="1">
          <mxGeometry relative="1" as="geometry" />
        </mxCell>
        <mxCell id="V8RE8BcvdDwi5T4sLW9s-11" value="" style="edgeStyle=orthogonalEdgeStyle;rounded=0;orthogonalLoop=1;jettySize=auto;html=1;" parent="1" source="V8RE8BcvdDwi5T4sLW9s-5" target="V8RE8BcvdDwi5T4sLW9s-10" edge="1">
          <mxGeometry relative="1" as="geometry" />
        </mxCell>
        <mxCell id="V8RE8BcvdDwi5T4sLW9s-5" value="Lambda:&lt;br&gt;appemailreceiver" style="whiteSpace=wrap;html=1;rounded=1;" parent="1" vertex="1">
          <mxGeometry x="215" y="350" width="120" height="60" as="geometry" />
        </mxCell>
        <mxCell id="V8RE8BcvdDwi5T4sLW9s-12" style="edgeStyle=orthogonalEdgeStyle;rounded=0;orthogonalLoop=1;jettySize=auto;html=1;exitX=0.5;exitY=1;exitDx=0;exitDy=0;exitPerimeter=0;entryX=0.5;entryY=0;entryDx=0;entryDy=0;" parent="1" source="V8RE8BcvdDwi5T4sLW9s-7" target="V8RE8BcvdDwi5T4sLW9s-10" edge="1">
          <mxGeometry relative="1" as="geometry" />
        </mxCell>
        <mxCell id="V8RE8BcvdDwi5T4sLW9s-7" value="AWS SQL:&lt;br&gt;AcmfReportMetadata&lt;br&gt;ReceivedReport" style="shape=cylinder3;whiteSpace=wrap;html=1;boundedLbl=1;backgroundOutline=1;size=15;" parent="1" vertex="1">
          <mxGeometry x="400" y="190" width="120" height="90" as="geometry" />
        </mxCell>
        <mxCell id="V8RE8BcvdDwi5T4sLW9s-15" style="edgeStyle=orthogonalEdgeStyle;rounded=0;orthogonalLoop=1;jettySize=auto;html=1;entryX=0;entryY=0.5;entryDx=0;entryDy=0;" parent="1" source="V8RE8BcvdDwi5T4sLW9s-10" target="V8RE8BcvdDwi5T4sLW9s-14" edge="1">
          <mxGeometry relative="1" as="geometry" />
        </mxCell>
        <mxCell id="TXAmpFvmCyabTyzz0n-k-8" style="edgeStyle=orthogonalEdgeStyle;rounded=0;orthogonalLoop=1;jettySize=auto;html=1;entryX=0.5;entryY=0;entryDx=0;entryDy=0;" edge="1" parent="1" source="V8RE8BcvdDwi5T4sLW9s-10" target="TXAmpFvmCyabTyzz0n-k-7">
          <mxGeometry relative="1" as="geometry" />
        </mxCell>
        <mxCell id="V8RE8BcvdDwi5T4sLW9s-10" value="Lambda:&lt;br&gt;ParseAcmfReport" style="whiteSpace=wrap;html=1;rounded=1;" parent="1" vertex="1">
          <mxGeometry x="400" y="350" width="120" height="60" as="geometry" />
        </mxCell>
        <mxCell id="V8RE8BcvdDwi5T4sLW9s-29" value="" style="edgeStyle=orthogonalEdgeStyle;rounded=0;orthogonalLoop=1;jettySize=auto;html=1;" parent="1" source="V8RE8BcvdDwi5T4sLW9s-13" target="V8RE8BcvdDwi5T4sLW9s-28" edge="1">
          <mxGeometry relative="1" as="geometry" />
        </mxCell>
        <mxCell id="V8RE8BcvdDwi5T4sLW9s-13" value="Blob:&lt;br&gt;IaoOrionCoreData &lt;br&gt;(Raw)" style="shape=dataStorage;whiteSpace=wrap;html=1;fixedSize=1;" parent="1" vertex="1">
          <mxGeometry x="740" y="560" width="155" height="80" as="geometry" />
        </mxCell>
        <mxCell id="V8RE8BcvdDwi5T4sLW9s-19" value="" style="edgeStyle=orthogonalEdgeStyle;rounded=0;orthogonalLoop=1;jettySize=auto;html=1;entryX=0;entryY=0.5;entryDx=0;entryDy=0;entryPerimeter=0;" parent="1" source="V8RE8BcvdDwi5T4sLW9s-14" target="V8RE8BcvdDwi5T4sLW9s-20" edge="1">
          <mxGeometry relative="1" as="geometry">
            <mxPoint x="1307.5" y="380" as="targetPoint" />
            <Array as="points">
              <mxPoint x="1242.5" y="380" />
              <mxPoint x="1242.5" y="240" />
            </Array>
          </mxGeometry>
        </mxCell>
        <mxCell id="V8RE8BcvdDwi5T4sLW9s-22" style="edgeStyle=orthogonalEdgeStyle;rounded=0;orthogonalLoop=1;jettySize=auto;html=1;entryX=0;entryY=0.5;entryDx=0;entryDy=0;" parent="1" source="V8RE8BcvdDwi5T4sLW9s-14" target="V8RE8BcvdDwi5T4sLW9s-21" edge="1">
          <mxGeometry relative="1" as="geometry" />
        </mxCell>
        <mxCell id="TXAmpFvmCyabTyzz0n-k-3" style="edgeStyle=orthogonalEdgeStyle;rounded=0;orthogonalLoop=1;jettySize=auto;html=1;entryX=0.5;entryY=0;entryDx=0;entryDy=0;exitX=0.5;exitY=1;exitDx=0;exitDy=0;" edge="1" parent="1" source="V8RE8BcvdDwi5T4sLW9s-14" target="V8RE8BcvdDwi5T4sLW9s-13">
          <mxGeometry relative="1" as="geometry" />
        </mxCell>
        <mxCell id="V8RE8BcvdDwi5T4sLW9s-14" value="FunctionApp&lt;br&gt;AscentiaCleanParse:&lt;br&gt;QueueUpsertAcmfReportMetadata&lt;br&gt;QueueUpsertAcmfReport" style="whiteSpace=wrap;html=1;rounded=1;" parent="1" vertex="1">
          <mxGeometry x="717.5" y="350" width="200" height="60" as="geometry" />
        </mxCell>
        <mxCell id="V8RE8BcvdDwi5T4sLW9s-20" value="SQL&lt;br&gt;Ascentia:&lt;br&gt;AcmfReport&lt;br&gt;AcmfParameterExceedence&lt;br&gt;ApuSerialNumberHistory" style="shape=cylinder3;whiteSpace=wrap;html=1;boundedLbl=1;backgroundOutline=1;size=15;" parent="1" vertex="1">
          <mxGeometry x="1332.5" y="190" width="180" height="100" as="geometry" />
        </mxCell>
        <mxCell id="V8RE8BcvdDwi5T4sLW9s-21" value="Blob:&lt;br&gt;RawReport&lt;br&gt;" style="shape=dataStorage;whiteSpace=wrap;html=1;fixedSize=1;" parent="1" vertex="1">
          <mxGeometry x="1332.5" y="340" width="150" height="80" as="geometry" />
        </mxCell>
        <mxCell id="V8RE8BcvdDwi5T4sLW9s-23" value="Cosmos (CleanParse):&lt;br&gt;AcmfReportData ? &lt;br&gt;(Replace with Databricks?)" style="strokeWidth=2;html=1;shape=mxgraph.flowchart.multi-document;whiteSpace=wrap;" parent="1" vertex="1">
          <mxGeometry x="1332.5" y="460" width="210" height="90" as="geometry" />
        </mxCell>
        <mxCell id="V8RE8BcvdDwi5T4sLW9s-24" style="edgeStyle=orthogonalEdgeStyle;rounded=0;orthogonalLoop=1;jettySize=auto;html=1;entryX=0;entryY=0.5;entryDx=0;entryDy=0;entryPerimeter=0;" parent="1" source="V8RE8BcvdDwi5T4sLW9s-14" target="V8RE8BcvdDwi5T4sLW9s-23" edge="1">
          <mxGeometry relative="1" as="geometry">
            <Array as="points">
              <mxPoint x="1242.5" y="380" />
              <mxPoint x="1242.5" y="505" />
            </Array>
          </mxGeometry>
        </mxCell>
        <mxCell id="V8RE8BcvdDwi5T4sLW9s-25" value="QueueMessages:&lt;br&gt;DemoParse&lt;br&gt;AlertNotification&lt;br&gt;ReportNotification" style="shape=tape;whiteSpace=wrap;html=1;strokeWidth=2;size=0.19" parent="1" vertex="1">
          <mxGeometry x="1332.5" y="570" width="200" height="120" as="geometry" />
        </mxCell>
        <mxCell id="V8RE8BcvdDwi5T4sLW9s-26" style="edgeStyle=orthogonalEdgeStyle;rounded=0;orthogonalLoop=1;jettySize=auto;html=1;entryX=0;entryY=0.5;entryDx=0;entryDy=0;entryPerimeter=0;" parent="1" source="V8RE8BcvdDwi5T4sLW9s-14" target="V8RE8BcvdDwi5T4sLW9s-25" edge="1">
          <mxGeometry relative="1" as="geometry">
            <Array as="points">
              <mxPoint x="1242.5" y="380" />
              <mxPoint x="1242.5" y="630" />
            </Array>
          </mxGeometry>
        </mxCell>
        <mxCell id="V8RE8BcvdDwi5T4sLW9s-33" style="edgeStyle=orthogonalEdgeStyle;rounded=0;orthogonalLoop=1;jettySize=auto;html=1;entryX=0;entryY=0.5;entryDx=0;entryDy=0;" parent="1" source="V8RE8BcvdDwi5T4sLW9s-28" target="V8RE8BcvdDwi5T4sLW9s-32" edge="1">
          <mxGeometry relative="1" as="geometry" />
        </mxCell>
        <mxCell id="V8RE8BcvdDwi5T4sLW9s-28" value="Databricks (Orion):&lt;br&gt;Autoloader / Job&lt;br&gt;Raw -&amp;gt; Refined" style="rounded=1;whiteSpace=wrap;html=1;" parent="1" vertex="1">
          <mxGeometry x="917.5" y="570" width="120" height="60" as="geometry" />
        </mxCell>
        <mxCell id="TXAmpFvmCyabTyzz0n-k-4" style="edgeStyle=orthogonalEdgeStyle;rounded=0;orthogonalLoop=1;jettySize=auto;html=1;entryX=0.5;entryY=0;entryDx=0;entryDy=0;exitX=0.5;exitY=1;exitDx=0;exitDy=0;" edge="1" parent="1" source="V8RE8BcvdDwi5T4sLW9s-32" target="V8RE8BcvdDwi5T4sLW9s-34">
          <mxGeometry relative="1" as="geometry" />
        </mxCell>
        <mxCell id="V8RE8BcvdDwi5T4sLW9s-32" value="Blob:&lt;br&gt;IaoOrionCoreData &lt;br&gt;(Refined)" style="shape=dataStorage;whiteSpace=wrap;html=1;fixedSize=1;" parent="1" vertex="1">
          <mxGeometry x="1057.5" y="560" width="150" height="80" as="geometry" />
        </mxCell>
        <mxCell id="V8RE8BcvdDwi5T4sLW9s-37" style="edgeStyle=orthogonalEdgeStyle;rounded=0;orthogonalLoop=1;jettySize=auto;html=1;entryX=0;entryY=0.5;entryDx=0;entryDy=0;entryPerimeter=0;" parent="1" source="V8RE8BcvdDwi5T4sLW9s-34" target="V8RE8BcvdDwi5T4sLW9s-38" edge="1">
          <mxGeometry relative="1" as="geometry">
            <mxPoint x="1067.5" y="770" as="targetPoint" />
          </mxGeometry>
        </mxCell>
        <mxCell id="V8RE8BcvdDwi5T4sLW9s-34" value="Databricks (IaoBrick):&lt;br&gt;Autoloader / Job Analytic Results Driver" style="rounded=1;whiteSpace=wrap;html=1;" parent="1" vertex="1">
          <mxGeometry x="992.5" y="755" width="130" height="60" as="geometry" />
        </mxCell>
        <mxCell id="V8RE8BcvdDwi5T4sLW9s-38" value="Cosmos (PHM):&lt;br&gt;Analytic Results&lt;br&gt;Analytic Metadata&lt;br&gt;(Replace with Databricks?)" style="strokeWidth=2;html=1;shape=mxgraph.flowchart.multi-document;whiteSpace=wrap;align=center;" parent="1" vertex="1">
          <mxGeometry x="1322.5" y="740" width="210" height="90" as="geometry" />
        </mxCell>
        <mxCell id="TXAmpFvmCyabTyzz0n-k-9" style="edgeStyle=orthogonalEdgeStyle;rounded=0;orthogonalLoop=1;jettySize=auto;html=1;entryX=0;entryY=0.5;entryDx=0;entryDy=0;" edge="1" parent="1" source="TXAmpFvmCyabTyzz0n-k-7" target="V8RE8BcvdDwi5T4sLW9s-14">
          <mxGeometry relative="1" as="geometry" />
        </mxCell>
        <mxCell id="TXAmpFvmCyabTyzz0n-k-7" value="S3:&lt;br&gt;(Critical Backup)&lt;br&gt;ParsedAcmfReport&lt;br&gt;RawAcmfReport" style="shape=dataStorage;whiteSpace=wrap;html=1;fixedSize=1;" vertex="1" parent="1">
          <mxGeometry x="382.5" y="450" width="155" height="80" as="geometry" />
        </mxCell>
        <mxCell id="TXAmpFvmCyabTyzz0n-k-13" value="" style="swimlane;startSize=0;" vertex="1" parent="1">
          <mxGeometry x="15" y="110" width="575" height="840" as="geometry" />
        </mxCell>
        <mxCell id="TXAmpFvmCyabTyzz0n-k-17" value="Data Policy:&lt;br&gt;Critical Backup&lt;br&gt;Archive After 6 Months&lt;br&gt;&lt;span data-lucid-content=&quot;{&amp;quot;t&amp;quot;:&amp;quot;DataPolicy: Critical Backup Archive After 6 Months&amp;quot;,&amp;quot;m&amp;quot;:[{&amp;quot;s&amp;quot;:0,&amp;quot;n&amp;quot;:&amp;quot;s&amp;quot;,&amp;quot;v&amp;quot;:22.22222222222222,&amp;quot;e&amp;quot;:50},{&amp;quot;s&amp;quot;:0,&amp;quot;n&amp;quot;:&amp;quot;c&amp;quot;,&amp;quot;v&amp;quot;:&amp;quot;3a414aff&amp;quot;,&amp;quot;e&amp;quot;:50}]}&quot; data-lucid-type=&quot;application/vnd.lucid.text&quot;&gt;&lt;/span&gt;&lt;span data-lucid-content=&quot;{&amp;quot;t&amp;quot;:&amp;quot;DataPolicy: Critical Backup Archive After 6 Months&amp;quot;,&amp;quot;m&amp;quot;:[{&amp;quot;s&amp;quot;:0,&amp;quot;n&amp;quot;:&amp;quot;s&amp;quot;,&amp;quot;v&amp;quot;:22.22222222222222,&amp;quot;e&amp;quot;:50},{&amp;quot;s&amp;quot;:0,&amp;quot;n&amp;quot;:&amp;quot;c&amp;quot;,&amp;quot;v&amp;quot;:&amp;quot;3a414aff&amp;quot;,&amp;quot;e&amp;quot;:50}]}&quot; data-lucid-type=&quot;application/vnd.lucid.text&quot;&gt;&lt;/span&gt;&lt;span data-lucid-content=&quot;{&amp;quot;t&amp;quot;:&amp;quot;DataPolicy: Critical Backup Archive After 6 Months&amp;quot;,&amp;quot;m&amp;quot;:[{&amp;quot;s&amp;quot;:0,&amp;quot;n&amp;quot;:&amp;quot;s&amp;quot;,&amp;quot;v&amp;quot;:22.22222222222222,&amp;quot;e&amp;quot;:50},{&amp;quot;s&amp;quot;:0,&amp;quot;n&amp;quot;:&amp;quot;c&amp;quot;,&amp;quot;v&amp;quot;:&amp;quot;3a414aff&amp;quot;,&amp;quot;e&amp;quot;:50}]}&quot; data-lucid-type=&quot;application/vnd.lucid.text&quot;&gt;&lt;/span&gt;&lt;span data-lucid-content=&quot;{&amp;quot;t&amp;quot;:&amp;quot;DataPolicy: Critical Backup Archive After 6 Months&amp;quot;,&amp;quot;m&amp;quot;:[{&amp;quot;s&amp;quot;:0,&amp;quot;n&amp;quot;:&amp;quot;s&amp;quot;,&amp;quot;v&amp;quot;:22.22222222222222,&amp;quot;e&amp;quot;:50},{&amp;quot;s&amp;quot;:0,&amp;quot;n&amp;quot;:&amp;quot;c&amp;quot;,&amp;quot;v&amp;quot;:&amp;quot;3a414aff&amp;quot;,&amp;quot;e&amp;quot;:50}]}&quot; data-lucid-type=&quot;application/vnd.lucid.text&quot;&gt;&lt;/span&gt;&lt;span data-lucid-content=&quot;{&amp;quot;t&amp;quot;:&amp;quot;DataPolicy: Critical Backup Archive After 6 Months&amp;quot;,&amp;quot;m&amp;quot;:[{&amp;quot;s&amp;quot;:0,&amp;quot;n&amp;quot;:&amp;quot;s&amp;quot;,&amp;quot;v&amp;quot;:22.22222222222222,&amp;quot;e&amp;quot;:50},{&amp;quot;s&amp;quot;:0,&amp;quot;n&amp;quot;:&amp;quot;c&amp;quot;,&amp;quot;v&amp;quot;:&amp;quot;3a414aff&amp;quot;,&amp;quot;e&amp;quot;:50}]}&quot; data-lucid-type=&quot;application/vnd.lucid.text&quot;&gt;&lt;/span&gt;&lt;span data-lucid-content=&quot;{&amp;quot;t&amp;quot;:&amp;quot;DataPolicy: Critical Backup Archive After 6 Months&amp;quot;,&amp;quot;m&amp;quot;:[{&amp;quot;s&amp;quot;:0,&amp;quot;n&amp;quot;:&amp;quot;s&amp;quot;,&amp;quot;v&amp;quot;:22.22222222222222,&amp;quot;e&amp;quot;:50},{&amp;quot;s&amp;quot;:0,&amp;quot;n&amp;quot;:&amp;quot;c&amp;quot;,&amp;quot;v&amp;quot;:&amp;quot;3a414aff&amp;quot;,&amp;quot;e&amp;quot;:50}]}&quot; data-lucid-type=&quot;application/vnd.lucid.text&quot;&gt;&lt;/span&gt;&lt;span data-lucid-content=&quot;{&amp;quot;t&amp;quot;:&amp;quot;DataPolicy: Critical Backup Archive After 6 Months&amp;quot;,&amp;quot;m&amp;quot;:[{&amp;quot;s&amp;quot;:0,&amp;quot;n&amp;quot;:&amp;quot;s&amp;quot;,&amp;quot;v&amp;quot;:22.22222222222222,&amp;quot;e&amp;quot;:50},{&amp;quot;s&amp;quot;:0,&amp;quot;n&amp;quot;:&amp;quot;c&amp;quot;,&amp;quot;v&amp;quot;:&amp;quot;3a414aff&amp;quot;,&amp;quot;e&amp;quot;:50}]}&quot; data-lucid-type=&quot;application/vnd.lucid.text&quot;&gt;&lt;/span&gt;&lt;span data-lucid-content=&quot;{&amp;quot;t&amp;quot;:&amp;quot;DataPolicy: Critical Backup Archive After 6 Months&amp;quot;,&amp;quot;m&amp;quot;:[{&amp;quot;s&amp;quot;:0,&amp;quot;n&amp;quot;:&amp;quot;s&amp;quot;,&amp;quot;v&amp;quot;:22.22222222222222,&amp;quot;e&amp;quot;:50},{&amp;quot;s&amp;quot;:0,&amp;quot;n&amp;quot;:&amp;quot;c&amp;quot;,&amp;quot;v&amp;quot;:&amp;quot;3a414aff&amp;quot;,&amp;quot;e&amp;quot;:50}]}&quot; data-lucid-type=&quot;application/vnd.lucid.text&quot;&gt;&lt;/span&gt;&lt;span data-lucid-content=&quot;{&amp;quot;t&amp;quot;:&amp;quot;DataPolicy: Critical Backup Archive After 6 Months&amp;quot;,&amp;quot;m&amp;quot;:[{&amp;quot;s&amp;quot;:0,&amp;quot;n&amp;quot;:&amp;quot;s&amp;quot;,&amp;quot;v&amp;quot;:22.22222222222222,&amp;quot;e&amp;quot;:50},{&amp;quot;s&amp;quot;:0,&amp;quot;n&amp;quot;:&amp;quot;c&amp;quot;,&amp;quot;v&amp;quot;:&amp;quot;3a414aff&amp;quot;,&amp;quot;e&amp;quot;:50}]}&quot; data-lucid-type=&quot;application/vnd.lucid.text&quot;&gt;&lt;/span&gt;" style="shape=document;whiteSpace=wrap;html=1;boundedLbl=1;" vertex="1" parent="TXAmpFvmCyabTyzz0n-k-13">
          <mxGeometry x="335" y="-40" width="225" height="90" as="geometry" />
        </mxCell>
        <mxCell id="TXAmpFvmCyabTyzz0n-k-21" value="Dataworks" style="rounded=0;whiteSpace=wrap;html=1;" vertex="1" parent="TXAmpFvmCyabTyzz0n-k-13">
          <mxGeometry x="165" y="-30" width="120" height="60" as="geometry" />
        </mxCell>
        <mxCell id="TXAmpFvmCyabTyzz0n-k-15" value="" style="swimlane;startSize=0;" vertex="1" parent="1">
          <mxGeometry x="660" y="110" width="910" height="840" as="geometry" />
        </mxCell>
        <mxCell id="TXAmpFvmCyabTyzz0n-k-18" value="Data Policy:&lt;br&gt;Keep as Appropriate&lt;br&gt;Delete After SLA&lt;br&gt;Reprocess as Necessary&lt;br&gt;&lt;span data-lucid-content=&quot;{&amp;quot;t&amp;quot;:&amp;quot;DataPolicy: Critical Backup Archive After 6 Months&amp;quot;,&amp;quot;m&amp;quot;:[{&amp;quot;s&amp;quot;:0,&amp;quot;n&amp;quot;:&amp;quot;s&amp;quot;,&amp;quot;v&amp;quot;:22.22222222222222,&amp;quot;e&amp;quot;:50},{&amp;quot;s&amp;quot;:0,&amp;quot;n&amp;quot;:&amp;quot;c&amp;quot;,&amp;quot;v&amp;quot;:&amp;quot;3a414aff&amp;quot;,&amp;quot;e&amp;quot;:50}]}&quot; data-lucid-type=&quot;application/vnd.lucid.text&quot;&gt;&lt;/span&gt;&lt;span data-lucid-content=&quot;{&amp;quot;t&amp;quot;:&amp;quot;DataPolicy: Critical Backup Archive After 6 Months&amp;quot;,&amp;quot;m&amp;quot;:[{&amp;quot;s&amp;quot;:0,&amp;quot;n&amp;quot;:&amp;quot;s&amp;quot;,&amp;quot;v&amp;quot;:22.22222222222222,&amp;quot;e&amp;quot;:50},{&amp;quot;s&amp;quot;:0,&amp;quot;n&amp;quot;:&amp;quot;c&amp;quot;,&amp;quot;v&amp;quot;:&amp;quot;3a414aff&amp;quot;,&amp;quot;e&amp;quot;:50}]}&quot; data-lucid-type=&quot;application/vnd.lucid.text&quot;&gt;&lt;/span&gt;&lt;span data-lucid-content=&quot;{&amp;quot;t&amp;quot;:&amp;quot;DataPolicy: Critical Backup Archive After 6 Months&amp;quot;,&amp;quot;m&amp;quot;:[{&amp;quot;s&amp;quot;:0,&amp;quot;n&amp;quot;:&amp;quot;s&amp;quot;,&amp;quot;v&amp;quot;:22.22222222222222,&amp;quot;e&amp;quot;:50},{&amp;quot;s&amp;quot;:0,&amp;quot;n&amp;quot;:&amp;quot;c&amp;quot;,&amp;quot;v&amp;quot;:&amp;quot;3a414aff&amp;quot;,&amp;quot;e&amp;quot;:50}]}&quot; data-lucid-type=&quot;application/vnd.lucid.text&quot;&gt;&lt;/span&gt;&lt;span data-lucid-content=&quot;{&amp;quot;t&amp;quot;:&amp;quot;DataPolicy: Critical Backup Archive After 6 Months&amp;quot;,&amp;quot;m&amp;quot;:[{&amp;quot;s&amp;quot;:0,&amp;quot;n&amp;quot;:&amp;quot;s&amp;quot;,&amp;quot;v&amp;quot;:22.22222222222222,&amp;quot;e&amp;quot;:50},{&amp;quot;s&amp;quot;:0,&amp;quot;n&amp;quot;:&amp;quot;c&amp;quot;,&amp;quot;v&amp;quot;:&amp;quot;3a414aff&amp;quot;,&amp;quot;e&amp;quot;:50}]}&quot; data-lucid-type=&quot;application/vnd.lucid.text&quot;&gt;&lt;/span&gt;&lt;span data-lucid-content=&quot;{&amp;quot;t&amp;quot;:&amp;quot;DataPolicy: Critical Backup Archive After 6 Months&amp;quot;,&amp;quot;m&amp;quot;:[{&amp;quot;s&amp;quot;:0,&amp;quot;n&amp;quot;:&amp;quot;s&amp;quot;,&amp;quot;v&amp;quot;:22.22222222222222,&amp;quot;e&amp;quot;:50},{&amp;quot;s&amp;quot;:0,&amp;quot;n&amp;quot;:&amp;quot;c&amp;quot;,&amp;quot;v&amp;quot;:&amp;quot;3a414aff&amp;quot;,&amp;quot;e&amp;quot;:50}]}&quot; data-lucid-type=&quot;application/vnd.lucid.text&quot;&gt;&lt;/span&gt;&lt;span data-lucid-content=&quot;{&amp;quot;t&amp;quot;:&amp;quot;DataPolicy: Critical Backup Archive After 6 Months&amp;quot;,&amp;quot;m&amp;quot;:[{&amp;quot;s&amp;quot;:0,&amp;quot;n&amp;quot;:&amp;quot;s&amp;quot;,&amp;quot;v&amp;quot;:22.22222222222222,&amp;quot;e&amp;quot;:50},{&amp;quot;s&amp;quot;:0,&amp;quot;n&amp;quot;:&amp;quot;c&amp;quot;,&amp;quot;v&amp;quot;:&amp;quot;3a414aff&amp;quot;,&amp;quot;e&amp;quot;:50}]}&quot; data-lucid-type=&quot;application/vnd.lucid.text&quot;&gt;&lt;/span&gt;&lt;span data-lucid-content=&quot;{&amp;quot;t&amp;quot;:&amp;quot;DataPolicy: Critical Backup Archive After 6 Months&amp;quot;,&amp;quot;m&amp;quot;:[{&amp;quot;s&amp;quot;:0,&amp;quot;n&amp;quot;:&amp;quot;s&amp;quot;,&amp;quot;v&amp;quot;:22.22222222222222,&amp;quot;e&amp;quot;:50},{&amp;quot;s&amp;quot;:0,&amp;quot;n&amp;quot;:&amp;quot;c&amp;quot;,&amp;quot;v&amp;quot;:&amp;quot;3a414aff&amp;quot;,&amp;quot;e&amp;quot;:50}]}&quot; data-lucid-type=&quot;application/vnd.lucid.text&quot;&gt;&lt;/span&gt;&lt;span data-lucid-content=&quot;{&amp;quot;t&amp;quot;:&amp;quot;DataPolicy: Critical Backup Archive After 6 Months&amp;quot;,&amp;quot;m&amp;quot;:[{&amp;quot;s&amp;quot;:0,&amp;quot;n&amp;quot;:&amp;quot;s&amp;quot;,&amp;quot;v&amp;quot;:22.22222222222222,&amp;quot;e&amp;quot;:50},{&amp;quot;s&amp;quot;:0,&amp;quot;n&amp;quot;:&amp;quot;c&amp;quot;,&amp;quot;v&amp;quot;:&amp;quot;3a414aff&amp;quot;,&amp;quot;e&amp;quot;:50}]}&quot; data-lucid-type=&quot;application/vnd.lucid.text&quot;&gt;&lt;/span&gt;&lt;span data-lucid-content=&quot;{&amp;quot;t&amp;quot;:&amp;quot;DataPolicy: Critical Backup Archive After 6 Months&amp;quot;,&amp;quot;m&amp;quot;:[{&amp;quot;s&amp;quot;:0,&amp;quot;n&amp;quot;:&amp;quot;s&amp;quot;,&amp;quot;v&amp;quot;:22.22222222222222,&amp;quot;e&amp;quot;:50},{&amp;quot;s&amp;quot;:0,&amp;quot;n&amp;quot;:&amp;quot;c&amp;quot;,&amp;quot;v&amp;quot;:&amp;quot;3a414aff&amp;quot;,&amp;quot;e&amp;quot;:50}]}&quot; data-lucid-type=&quot;application/vnd.lucid.text&quot;&gt;&lt;/span&gt;" style="shape=document;whiteSpace=wrap;html=1;boundedLbl=1;" vertex="1" parent="TXAmpFvmCyabTyzz0n-k-15">
          <mxGeometry x="45" y="-40" width="225" height="100" as="geometry" />
        </mxCell>
        <mxCell id="TXAmpFvmCyabTyzz0n-k-19" value="Azure" style="rounded=0;whiteSpace=wrap;html=1;" vertex="1" parent="1">
          <mxGeometry x="1050" y="80" width="120" height="60" as="geometry" />
        </mxCell>
      </root>
    </mxGraphModel>
  </diagram>
</mxfile>
